<svg width="120px" height="40px" viewBox="0 0 120 40" version="1.1" xmlns="http://www.w3.org/2000/svg" xmlns:xlink="http://www.w3.org/1999/xlink">
    <defs>
        <polygon id="path-1" points="26.5268237 27.5678802 26.5268237 0.210619253 0.153708796 0.210619253 0.153708796 27.5678802 26.5268237 27.5678802"></polygon>
        <polygon id="path-3" points="4.75332031e-20 0.213614084 4.75332031e-20 6.74136933 5.3983967 6.74136933 5.3983967 0.213614084"></polygon>
        <polygon id="path-5" points="0 40.0114798 119.471104 40.0114798 119.471104 0.210354471 0 0.210354471"></polygon>
    </defs>
    <g id="Page-1" stroke="none" stroke-width="1" fill="none" fill-rule="evenodd">
        <g>
            <polygon id="Fill-1" fill="#532E63" points="0.383428555 0 0.383428555 27.2234274 19.5548563 27.2234274 19.5548563 21.6296086 7.42757479 21.6296086 7.42757479 0"></polygon>
            <path d="M37.7524428,0 L27.606856,27.2234274 L35.0527091,27.2234274 L36.8454106,21.8263452 L45.5712561,21.8263452 L47.322122,27.2234274 L54.8302834,27.2234274 L44.6312895,0 L37.7524428,0 Z M41.2087784,7.17473799 L43.7794447,16.3950097 L38.5962764,16.3950097 L41.2087784,7.17473799 Z" id="Fill-2" fill="#532E63"></path>
            <g id="Group-27">
                <path d="M70.8688739,21.9464732 L72.997824,21.9464732 C78.2807418,21.9464732 80.5377095,19.5201888 80.5377095,13.8547398 C80.5377095,8.2484254 78.2807418,5.82390625 72.997824,5.82390625 L70.8688739,5.82390625 L70.8688739,21.9464732 Z M63.7551291,0.210530992 L71.4616128,0.210530992 C76.8900849,0.210530992 79.8941142,0.85659871 82.4167623,2.62622409 C85.9530291,5.08957791 87.8917065,9.05954048 87.8917065,13.8547398 C87.8917065,19.4434021 85.2392872,23.9932369 80.7349969,26.1247308 C78.6183224,27.1106019 75.7686157,27.5677919 71.4616128,27.5677919 L63.7551291,27.5677919 L63.7551291,0.210530992 Z" id="Fill-3" fill="#532E63"></path>
                <g id="Group-7" transform="translate(92.944280, 0.000000)">
                    <mask id="mask-2" fill="white">
                        <use xlink:href="#path-1"></use>
                    </mask>
                    <g id="Clip-6"></g>
                    <polygon id="Fill-5" fill="#532E63" mask="url(#mask-2)" points="0.153708796 0.210619253 9.7865943 16.7806675 9.7865943 27.5678802 16.8906939 27.5678802 16.8906939 16.7806675 26.5270867 0.210619253 18.6233156 0.210619253 13.4771837 10.8239585 8.18199022 0.210619253"></polygon>
                </g>
                <g id="Group-10" transform="translate(0.000000, 33.199149)">
                    <mask id="mask-4" fill="white">
                        <use xlink:href="#path-3"></use>
                    </mask>
                    <g id="Clip-9"></g>
                    <path d="M5.3983967,6.01763227 C4.69780727,6.55602204 3.85604775,6.74136933 3.16334981,6.74136933 C1.28868121,6.74136933 -0.00026304985,5.30272127 -0.00026304985,3.47749171 C-0.00026304985,1.5463494 1.42897447,0.213614084 3.16334981,0.213614084 C3.79466945,0.213614084 4.55751402,0.319526824 5.3983967,0.955003268 L5.3983967,1.65137954 C4.61012399,0.875568713 3.80343778,0.706990934 3.18088647,0.706990934 C1.82267241,0.706990934 0.63105659,1.87203108 0.63105659,3.47749171 C0.63105659,4.95938747 1.67361083,6.24799248 3.17211814,6.24799248 C4.01387766,6.24799248 4.81179554,5.88612395 5.3983967,5.33008206 L5.3983967,6.01763227 Z" id="Fill-8" fill="#532E63" mask="url(#mask-4)"></path>
                </g>
                <path d="M18.8091165,36.6767289 C18.8091165,35.0536162 17.626269,33.9062281 16.1268848,33.9062281 C14.6283775,33.9062281 13.44553,35.0536162 13.44553,36.6767289 C13.44553,38.2998417 14.6283775,39.4472297 16.1268848,39.4472297 C17.626269,39.4472297 18.8091165,38.2998417 18.8091165,36.6767289 M12.8150872,36.6767289 C12.8150872,34.7270519 14.3048262,33.4128513 16.1268848,33.4128513 C17.9506971,33.4128513 19.4404361,34.7270519 19.4404361,36.6767289 C19.4404361,38.6264059 17.9506971,39.9406065 16.1268848,39.9406065 C14.3048262,39.9406065 12.8150872,38.6264059 12.8150872,36.6767289" id="Fill-11" fill="#532E63"></path>
                <polygon id="Fill-13" fill="#532E63" points="27.4262788 33.5892843 28.0225251 33.5892843 28.0225251 39.2706202 30.0024137 39.2706202 30.0024137 39.763997 27.4262788 39.763997"></polygon>
                <polygon id="Fill-15" fill="#532E63" points="37.6070095 33.5892843 38.2032558 33.5892843 38.2032558 39.2706202 40.1831443 39.2706202 40.1831443 39.763997 37.6070095 39.763997"></polygon>
                <polygon id="Fill-17" fill="#532E63" points="47.7878278 33.5892843 51.0741973 33.5892843 51.0741973 34.0835437 48.3840741 34.0835437 48.3840741 36.0596989 50.9777457 36.0596989 50.9777457 36.5530758 48.3840741 36.5530758 48.3840741 39.2706202 51.0741973 39.2706202 51.0741973 39.763997 47.7878278 39.763997"></polygon>
                <path d="M64.0931481,39.2167812 C63.3925587,39.755171 62.5507992,39.9405183 61.8589781,39.9405183 C59.9843095,39.9405183 58.6953652,38.5018702 58.6953652,36.6766407 C58.6953652,34.7454983 60.1237259,33.412763 61.8589781,33.412763 C62.4902977,33.412763 63.2522654,33.5186758 64.0931481,34.1541522 L64.0931481,34.8505285 C63.3048754,34.0747177 62.499066,33.9061399 61.8765147,33.9061399 C60.5183007,33.9061399 59.3266849,35.07118 59.3266849,36.6766407 C59.3266849,38.1585364 60.3692391,39.4471414 61.8677464,39.4471414 C62.7086291,39.4471414 63.506547,39.0852729 64.0931481,38.529231 L64.0931481,39.2167812 Z" id="Fill-19" fill="#532E63"></path>
                <polygon id="Fill-21" fill="#532E63" points="73.0755114 34.0831907 71.4375876 34.0831907 71.4375876 33.5889312 75.3105583 33.5889312 75.3105583 34.0831907 73.6717577 34.0831907 73.6717577 39.7645266 73.0755114 39.7645266"></polygon>
                <mask id="mask-6" fill="white">
                    <use xlink:href="#path-5"></use>
                </mask>
                <g id="Clip-24"></g>
                <polygon id="Fill-23" fill="#532E63" mask="url(#mask-6)" points="82.9203274 39.7643501 83.5165737 39.7643501 83.5165737 33.5896373 82.9203274 33.5896373"></polygon>
                <path d="M97.4873266,36.6767289 C97.4873266,35.0536162 96.3044791,33.9062281 94.8059718,33.9062281 C93.3074645,33.9062281 92.124617,35.0536162 92.124617,36.6767289 C92.124617,38.2998417 93.3074645,39.4472297 94.8059718,39.4472297 C96.3044791,39.4472297 97.4873266,38.2998417 97.4873266,36.6767289 M91.4932973,36.6767289 C91.4932973,34.7270519 92.9830363,33.4128513 94.8059718,33.4128513 C96.6289072,33.4128513 98.1186462,34.7270519 98.1186462,36.6767289 C98.1186462,38.6264059 96.6289072,39.9406065 94.8059718,39.9406065 C92.9830363,39.9406065 91.4932973,38.6264059 91.4932973,36.6767289" id="Fill-25" fill="#532E63" mask="url(#mask-6)"></path>
                <polygon id="Fill-26" fill="#532E63" mask="url(#mask-6)" points="106.104927 33.341978 110.758279 38.5025763 110.758279 33.5891077 111.353649 33.5891077 111.353649 40.0118329 106.701174 34.850352 106.701174 39.7638205 106.104927 39.7638205"></polygon>
            </g>
        </g>
    </g>
</svg>